<svg xmlns="http://www.w3.org/2000/svg" width="93.49" height="137.131" viewBox="0 0 93.49 137.131">
  <g id="Group_42" data-name="Group 42" transform="translate(0 -17)">
    <path id="Path_9" data-name="Path 9" d="M58.375,33.31A21.876,21.876,0,0,0,22.227,43.929,1.566,1.566,0,0,1,20.71,45.12H13.25a1.561,1.561,0,0,1-1.537-1.846A32.29,32.29,0,0,1,65.742,25.942l4.649-4.65A3.124,3.124,0,0,1,75.726,23.5V40.954A3.124,3.124,0,0,1,72.6,44.078H55.149a3.125,3.125,0,0,1-2.209-5.334Z" transform="translate(-9.552)" fill="#ef476f"/>
    <path id="Path_10" data-name="Path 10" d="M93.49,296.682v-35.15c0-4.158-3.926-7.532-8.765-7.532H8.765C3.926,254,0,257.374,0,261.532v35.15c0,4.158,3.926,7.532,8.765,7.532h75.96C89.564,304.214,93.49,300.84,93.49,296.682ZM5.843,279.107c0-2.777,2.611-5.021,5.843-5.021s5.843,2.244,5.843,5.021-2.611,5.021-5.843,5.021S5.843,281.885,5.843,279.107Zm19.721,17.575a2.061,2.061,0,0,1-2.191-1.883V263.415a2.061,2.061,0,0,1,2.191-1.883h56.97a2.061,2.061,0,0,1,2.191,1.883V294.8a2.061,2.061,0,0,1-2.191,1.883Z" transform="translate(0 -193.724)" fill="#073b4c"/>
    <path id="Path_11" data-name="Path 11" d="M147.922,613.055H165.6a3.165,3.165,0,0,1,2.238,5.4l-5.506,5.506a22.161,22.161,0,0,0,36.618-10.757A1.587,1.587,0,0,1,200.488,612h7.557a1.582,1.582,0,0,1,1.557,1.869,32.71,32.71,0,0,1-54.732,17.558l-4.71,4.71a3.165,3.165,0,0,1-5.4-2.238V616.22A3.165,3.165,0,0,1,147.922,613.055Z" transform="translate(-118.325 -486.355)" fill="#ffca66"/>
  </g>
</svg>
