<svg xmlns="http://www.w3.org/2000/svg" width="860.091" height="206.971" viewBox="0 0 860.091 206.971">
  <g id="Group_37" data-name="Group 37" transform="translate(0)">
    <path id="Path_1" data-name="Path 1" d="M163.118,235.266c-5.983,3.392-24.956,5.781-41.167,2.439-9.049-1.827-35.062-7.9-46.331-25.056-8.33-12.739-16.64-35.662-12.119-58.581,4.313-21.661,13.9-33.159,30.82-47.242C110.906,93.2,144.97,85.778,144.97,85.778L158.362,102.2l7.675,31.784s-17.33-.11-28.071,2.811c-12.5,3.4-23.188,4.074-29.963,15.334-5.968,9.9-11.02,12.739-4.819,39.054,3.55,14.715,24.156,14.919,37.8,8.481,6.64-3.086,13.5-12.523,13.5-12.523l17.424-3.164L185.7,208.067S173.052,229.826,163.118,235.266Zm4.164-27.748s-11.231,6.256-19.379,7.546c-10.3,1.833-17.079,1.48-26.9-2.67-11.831-5.258-18.787-11.9-23.184-24.237-4.293-12.97.776-29.861,3.827-35.029,7.079-11.917,15.821-17.167,29.208-20.1a195.6,195.6,0,0,1,29.369-3.627l-5.132-19.555s-24.986,1.711-38.905,9c-12.027,6.385-19.21,11.186-26.748,22.768-8.312,13.129-9.72,23.537-8.859,39.289,1.072,14.495,2.643,24.431,12.112,35.358,9.437,10.727,18.706,13.948,32.606,16.84,13.274,2.788,22.655,4.156,34.515-2,10-5.044,19.783-20.443,19.783-20.443Z" transform="translate(-62.225 -48.218)" fill="#073b4c"/>
    <path id="Path_2" data-name="Path 2" d="M198.774,218.6l-20.255-9.832c.2-7.867,2.556-10.028,1.18-17.7-1.574-7.867-2.556-13.374-8.849-19.273-6.885,4.721-6.293,12.98-7.475,22.221-1.376,9.047-1.18,14.358.59,23.4H141.742L125.421,204.25l1.77-40.512L128.373,125,131.91,71.31l20.257-3.933L162.2,78.783l-1.18,59.981c6.489-8.457,16.715-6.689,27.336-4.525,15.536,2.952,20.649,18.093,22.22,33.039,1.77,17.9.2,27.138.984,47.2Zm7.669-54.668c-4.719-9.047-11.208-12.586-21.633-14.358-12.388-2.36-16.322,6.293-28.12,10.62l.2-28.318.59-25.762.59-22.223-12.192,2.36L144.1,119.3l-.59,31.465v35.788l1.574,26.942,13.764.394.394-22.81c.394-11.21,4.917-23.992,16.911-24.978,11.408-.982,19.863,8.853,20.847,20.453l2.754,28.124,7.865-2.362Z" transform="translate(3.575 -67.377)" fill="#073b4c"/>
    <path id="Path_3" data-name="Path 3" d="M246.262,214.983l-9.059-7.032a44.187,44.187,0,0,1-25.368,5.07c-25.186-3.027-39.63-24.57-36.695-48.979,3.286-27.334,21.388-52.69,51.651-49.05,8.785,1.055,15.44,5.025,23.094,8.916l3.46-10.676,17.871,2.941,5.885,16.948c-1.7,12.474-3.4,24.946-4.9,37.442-1.878,15.619-2.974,31.333-4.462,47Zm25.58-79.323-8.957-1.274-3.815,13.6s-15.195-15.3-27.738-16.407c-12.737-1.137-22.7,2.619-30.336,11.8a64.186,64.186,0,0,0-15.38,38.954C184.479,204.979,199,206.13,213.742,208.7c12.4,2.282,30.79-8.975,30.79-8.975l3.468.812-.782,9.81,15.572,2.268,5.8-41.688ZM215.6,199.809c-10.545-1.268-19.447-6.3-17.94-28.7.727-11,4.172-14.948,11.063-22.835,9.657-11.118,28.712-4.866,28.712-4.866l7.216,9.187-1.38,18.054-2.537,21.088S221.462,200.513,215.6,199.809Zm-2.911-48.283c-8.334,6.722-10.506,11.61-11.561,20.4-1.01,8.4,1.978,21.431,9.773,19.2a24.887,24.887,0,0,0,8.785-3.895,27.661,27.661,0,0,0,7.789-8.769l4.85-32.1S222.8,143.233,212.693,151.526Z" transform="translate(54.952 -19.632)" fill="#073b4c"/>
    <path id="Path_4" data-name="Path 4" d="M304.22,148.241c-5.309-3.737-9.637-2.558-16.126-2.558-7.671.2-11.406,1.376-13.766,14.356l-1.18,26.744,1.574,25.37-23.008-3.148-15.34-12.978,1.77-39.528-3.539-46.8,17.7-8.457,11.6,14.358c6.095-2.754,9.243-5.311,15.732-6.885,6.883-1.572,11.012-1.966,17.9-1.18l11.21,18.291Zm-20.059-19.863c-9.439,1.966-14.946,5.7-20.649,13.176l-1.968-19.273-8.061,2.556V152.96c0,9.832-.394,24.778-.394,25.172,0,.194,1.572,26.744,1.572,27.138,0,.2,8.851,3.146,14.946,2.556l.788-50.934c2.754-8.061,7.275-12.586,15.34-14.944,5.9-1.772,9.045.194,16.126.786l2.95-12.39C297.337,127.2,292.028,126.8,284.161,128.378Z" transform="translate(117.258 -32.121)" fill="#073b4c"/>
    <path id="Path_5" data-name="Path 5" d="M349.94,213.589,340.1,207.7a44.2,44.2,0,0,1-24.574,8.091c-25.368.027-42.3-19.618-42.331-44.2-.031-27.532,14.887-54.882,45.368-54.917,8.851-.008,15.932,3.129,24,6.071l2.151-11.016,18.093.77,7.883,16.115c-.182,12.586-.365,25.172-.351,37.758.016,15.732.821,31.463,1.233,47.2Zm15.838-81.826-9.045-.186-2.149,13.966s-16.928-13.356-29.512-12.947c-12.782.406-22.217,5.334-28.7,15.368A64.206,64.206,0,0,0,285.8,188.489c1.6,22.612,16.15,22.008,31.1,22.778,12.586.772,29.485-12.617,29.485-12.617l3.539.388.4,9.832,15.732.376.741-42.084Zm-48.1,70.456c-10.618.012-20.061-3.913-21.267-26.329-.6-11.012,2.343-15.342,8.234-24,8.247-12.2,27.916-8.289,27.916-8.289l8.269,8.251.806,18.089.022,21.241S323.574,202.214,317.675,202.22Zm-8.7-47.58c-7.465,7.677-9.032,12.79-9.024,21.641.01,8.457,4.548,21.037,12.017,17.883a24.877,24.877,0,0,0,8.255-4.925,27.656,27.656,0,0,0,6.675-9.645l.949-32.447S318.008,145.191,308.971,154.639Z" transform="translate(157.44 -21.2)" fill="#073b4c"/>
    <path id="Path_6" data-name="Path 6" d="M399.833,137.958l-1.18,48.377-.788,53.294c-13.766,5.113-24.384,6.687-38.348,1.18-15.142-6.293-24.188-15.536-27.53-31.465s1.768-35.986,12.19-48.377c6.885-7.867,13.572-9.441,22.027-15.144l.984-22.614,3.343-22.419,19.075-4.521,11.406,15.142ZM387.442,117.7l-1.966,30.283L384.3,170.6c-6.883-5.9-14.358-2.362-22.418.392-10.422,3.737-13.766,10.62-16.324,21.435-2.162,9.835-2.556,26.55,3.343,35.007s13.374,10.618,23.2,12.192c8.851,1.378,13.768-2.36,22.419-3.933V178.469l1.574-34.415.788-29.3ZM365.22,230.777c-11.8-3.146-14.158-11.4-14.158-20.451,0-7.867,4.325-24.582,12.192-26.352,6.685-1.574,9.047,0,15.93.394l.59,45.229C374.07,231.565,370.923,232.351,365.22,230.777Zm-6.1-40.116c-1.968,2.164-4.327,15.928-4.327,16.324s-.786,5.111,0,8.651l.59,3.343,7.277-6.1c.2-5.113,1.77-24.188,1.376-24.974S360.5,188.694,359.125,190.661Z" transform="translate(217.594 -37.296)" fill="#073b4c"/>
    <path id="Path_7" data-name="Path 7" d="M445.474,160.3l-39.893,5.83,1.572,13.886,3.527,6.017,5.828,5.46c8.24.5,14.458-.465,21.847-5.4,7.779-5,11.253-9.52,14.254-18.348l17.536-1.145,8.473,12.213c-5.332,9.192-5.826,16.236-13.464,23.4-9.236,8.408-17.44,10.684-29.936,12.237-16.246,1.741-27.571-.672-40.824-10.345-12.8-9.347-20.151-18.152-21.994-33.786-1.588-15.278,3.052-26.352,13.121-37.081,9.545-10.249,11.439-12.137,22.747-17.483,9.843-4.521,20.808-8.226,34.986-6.656,8.718,1.027,8.822.414,22.978,13.329,9.485,8.473,12.466,17.362,13.915,30.471Zm2.6-35.633c-22.606.541-21.471.165-33.123,4.572-15.94,6.271-24.119,18.891-25.652,35.852-1.576,17.959,5.095,32.641,20.947,41.114,10.163,5.179,17.76,5.389,28.805,3.464,9.326-1.455,15.138-3.756,22.121-10.022,5.969-5.111,7.02-9.853,11.582-16.336l-10.543.053c-5.326,11.778-14.282,18.152-27.289,18.987-11.033.729-18.306-2.515-25.948-10.675-8.155-8.879-5.84-17-7.72-29.048l35.168-5.491,38.5-8.4C472.1,133.249,461.946,124.286,448.072,124.663Zm-19.514,26.73-23.019,3c2.072-9.677,12.833-18.524,23.386-19.773,10.359-1.219,18.846,3.427,25.458,11.353Zm4.7-13.272s-5.787-.094-9.388,1.068a31.406,31.406,0,0,0-6.438,3.392l16.711-2.609Z" transform="translate(260.412 -24.324)" fill="#073b4c"/>
    <path id="Path_8" data-name="Path 8" d="M507.388,236.995c-13.007,3.088-48.452-5.346-61.3-10.331L429.5,207.014l13.588-21.373c19.53,9.1,29.048,16.432,49.905,11.48a33.608,33.608,0,0,0,16.632-9.655c-7.661-3.88-18.983-3.527-27.652-5.1-24-3.895-28.02-15.38-33.325-37.713-8.857-37.3,17.926-41.324,45.26-50.669L514.549,117.6l-3.968,30.234c-7.124-2.713-12.578-7.122-20.677-5.2-6.134,1.457-14.6,3.986-12.682,12.086,2.447,10.306,53.628,2.041,61.844,36.642C543.961,211.976,526.773,232.39,507.388,236.995Zm-33.815-79.072c-2.1-8.836,4.076-18.859,12.911-20.957,7.363-1.747,14.348,2.558,21.11,4.84l1.041-20.726c-7.687-1.8-15.738-4.04-23.59-2.176-17.422,4.138-30.051,21.914-25.856,39.583,6.236,26.258,21.969,15,39.761,21.145,7.618,2.6,20.722,6.487,22.821,15.319,2.564,10.8-7.665,22.3-17.481,24.633-13.741,3.264-37.56-5.34-49.777-12.031l-.606,14.921c14.1,8.057,37.487,11.576,53.192,7.846,15.95-3.786,31.392-16.268,27.137-34.182C524.8,156.384,477.07,172.644,473.574,157.923Z" transform="translate(320.182 -39.672)" fill="#073b4c"/>
  </g>
</svg>
